<svg width="644" height="71" viewBox="0 0 644 71" fill="none" xmlns="http://www.w3.org/2000/svg">
<path d="M6.96875 14.1562H16.875L34.625 31.9688L52.375 14.1562H62.2812V63H52.375V27.875L34.625 44.9688L16.875 27.875V63H6.96875V14.1562ZM92.8438 14.1562H103.344L126.969 63H116.562L112.656 54.7812H84.125L80.3438 63H69.9062L92.8438 14.1562ZM108.75 46.625L98.1875 24.4375L87.9062 46.625H108.75ZM149.281 22.8438H131.25V14.1562H177.219V22.8438H159.188V63H149.281V22.8438ZM187.781 14.1562H197.688V26.9062H228.062V14.1562H238V63H228.062V35.375H197.688V63H187.781V14.1562ZM251.875 14.1562H293.469V22.8438H261.781V32.5938H289.844V40.75H261.781V54.3438H294.125V63H251.875V14.1562ZM305.062 14.1562H314.969L345.406 30.0938V14.1562H355.312V63H345.406V40.5938L314.969 24.75V63H305.062V14.1562ZM365.781 38.125C365.781 34.6875 366.427 31.4792 367.719 28.5C369.01 25.5 370.896 22.8958 373.375 20.6875C375.854 18.4792 378.896 16.7396 382.5 15.4688C386.125 14.1979 390.271 13.5625 394.938 13.5625C396.625 13.5625 398.312 13.6562 400 13.8438C401.708 14.0104 403.385 14.2812 405.031 14.6562C406.698 15.0312 408.312 15.5104 409.875 16.0938C411.458 16.6562 412.958 17.3333 414.375 18.125L409.812 25.625C408.958 25.125 407.99 24.6771 406.906 24.2812C405.823 23.8646 404.656 23.5208 403.406 23.25C402.177 22.9583 400.896 22.7396 399.562 22.5938C398.25 22.4479 396.927 22.375 395.594 22.375C392.51 22.375 389.76 22.7708 387.344 23.5625C384.927 24.3333 382.885 25.4271 381.219 26.8438C379.552 28.2396 378.281 29.9167 377.406 31.875C376.531 33.8333 376.094 35.9792 376.094 38.3125C376.094 40.7292 376.552 42.9479 377.469 44.9688C378.385 46.9896 379.688 48.7292 381.375 50.1875C383.062 51.6458 385.104 52.7917 387.5 53.625C389.896 54.4375 392.573 54.8438 395.531 54.8438C397.885 54.8438 400.042 54.5833 402 54.0625C403.958 53.5208 405.667 52.7604 407.125 51.7812C408.583 50.8021 409.771 49.625 410.688 48.25C411.604 46.8542 412.208 45.2917 412.5 43.5625H395.438V35.4062H421.406V35.4375L421.438 35.4062C421.958 37.9062 422.115 40.3438 421.906 42.7188C421.719 45.0729 421.177 47.3021 420.281 49.4062C419.406 51.4896 418.198 53.4062 416.656 55.1562C415.115 56.9062 413.271 58.4167 411.125 59.6875C408.979 60.9375 406.542 61.9167 403.812 62.625C401.083 63.3125 398.094 63.6562 394.844 63.6562C390.302 63.6562 386.229 62.9896 382.625 61.6562C379.042 60.3229 376 58.5 373.5 56.1875C371 53.875 369.083 51.1667 367.75 48.0625C366.438 44.9583 365.781 41.6458 365.781 38.125ZM433.125 14.1562H474.719V22.8438H443.031V32.5938H471.094V40.75H443.031V54.3438H475.375V63H433.125V14.1562Z" fill="black"/>
<mask id="path-2-outside-1_149_5" maskUnits="userSpaceOnUse" x="490" y="10" width="142" height="55" fill="black">
<rect fill="white" x="490" y="10" width="142" height="55"/>
<path d="M497.656 21.0938C496.74 21.0938 495.906 20.9688 495.156 20.7188C494.427 20.4479 493.802 20.0938 493.281 19.6562C492.76 19.1979 492.354 18.6771 492.062 18.0938C491.792 17.4896 491.656 16.8542 491.656 16.1875C491.656 15.5 491.792 14.8646 492.062 14.2812C492.354 13.6771 492.76 13.1562 493.281 12.7188C493.802 12.2812 494.427 11.9375 495.156 11.6875C495.906 11.4167 496.74 11.2812 497.656 11.2812C498.594 11.2812 499.427 11.4167 500.156 11.6875C500.906 11.9375 501.542 12.2812 502.062 12.7188C502.583 13.1562 502.979 13.6771 503.25 14.2812C503.542 14.8646 503.688 15.5 503.688 16.1875C503.688 16.8542 503.542 17.4896 503.25 18.0938C502.979 18.6771 502.583 19.1979 502.062 19.6562C501.542 20.0938 500.906 20.4479 500.156 20.7188C499.427 20.9688 498.594 21.0938 497.656 21.0938ZM493.031 26.125H502.281V63H493.031V26.125ZM514.156 26.125H523.406V29.25C525.865 27.8542 528.208 26.875 530.438 26.3125C532.688 25.75 534.885 25.4688 537.031 25.4688C539.844 25.4688 542.448 25.8854 544.844 26.7188C547.24 27.5312 549.312 28.75 551.062 30.375C552.812 32 554.177 34.0312 555.156 36.4688C556.156 38.8854 556.656 41.6875 556.656 44.875V63H547.438V46.375C547.438 44.3542 547.146 42.5521 546.562 40.9688C546 39.3646 545.177 38.0208 544.094 36.9375C543.031 35.8333 541.729 35 540.188 34.4375C538.667 33.8542 536.958 33.5625 535.062 33.5625C534.062 33.5625 533.031 33.6667 531.969 33.875C530.927 34.0833 529.896 34.3854 528.875 34.7812C527.875 35.1562 526.906 35.6354 525.969 36.2188C525.031 36.7812 524.177 37.4271 523.406 38.1562V63H514.156V26.125ZM565.812 44.6562C565.812 41.9479 566.302 39.4271 567.281 37.0938C568.281 34.7396 569.729 32.7083 571.625 31C573.542 29.2708 575.875 27.9167 578.625 26.9375C581.396 25.9583 584.552 25.4688 588.094 25.4688C589.635 25.4688 591.188 25.5625 592.75 25.75C594.312 25.9375 595.812 26.2083 597.25 26.5625C598.708 26.8958 600.073 27.3021 601.344 27.7812C602.615 28.2396 603.719 28.75 604.656 29.3125L600.375 36.2812C598.354 35.3438 596.438 34.6562 594.625 34.2188C592.833 33.7812 591.01 33.5625 589.156 33.5625C587.031 33.5625 585.125 33.8438 583.438 34.4062C581.75 34.9479 580.312 35.7188 579.125 36.7188C577.958 37.6979 577.062 38.8646 576.438 40.2188C575.833 41.5521 575.531 43.0104 575.531 44.5938C575.531 46.1771 575.854 47.6458 576.5 49C577.167 50.3333 578.094 51.4896 579.281 52.4688C580.49 53.4271 581.938 54.1875 583.625 54.75C585.333 55.2917 587.229 55.5625 589.312 55.5625C591.604 55.5625 593.76 55.2396 595.781 54.5938C597.823 53.9479 599.719 53.0833 601.469 52L605.75 58.9688C604.646 59.6354 603.448 60.2604 602.156 60.8438C600.865 61.4062 599.479 61.8958 598 62.3125C596.542 62.7292 595 63.0521 593.375 63.2812C591.771 63.5312 590.104 63.6562 588.375 63.6562C584.854 63.6562 581.698 63.1771 578.906 62.2188C576.115 61.2604 573.75 59.9375 571.812 58.25C569.875 56.5417 568.385 54.5312 567.344 52.2188C566.323 49.9062 565.812 47.3854 565.812 44.6562ZM615.906 57.5938C615.906 56.7604 616.073 55.9792 616.406 55.25C616.76 54.5 617.26 53.8542 617.906 53.3125C618.552 52.75 619.333 52.3125 620.25 52C621.167 51.6875 622.198 51.5312 623.344 51.5312C624.49 51.5312 625.521 51.6875 626.438 52C627.354 52.3125 628.125 52.75 628.75 53.3125C629.396 53.8542 629.885 54.5 630.219 55.25C630.573 55.9792 630.75 56.7604 630.75 57.5938C630.75 58.4271 630.573 59.2188 630.219 59.9688C629.885 60.6979 629.396 61.3333 628.75 61.875C628.125 62.4167 627.354 62.8438 626.438 63.1562C625.521 63.4896 624.49 63.6562 623.344 63.6562C622.198 63.6562 621.167 63.4896 620.25 63.1562C619.333 62.8438 618.552 62.4167 617.906 61.875C617.26 61.3333 616.76 60.6979 616.406 59.9688C616.073 59.2188 615.906 58.4271 615.906 57.5938Z"/>
</mask>
<path d="M497.656 21.0938C496.74 21.0938 495.906 20.9688 495.156 20.7188C494.427 20.4479 493.802 20.0938 493.281 19.6562C492.76 19.1979 492.354 18.6771 492.062 18.0938C491.792 17.4896 491.656 16.8542 491.656 16.1875C491.656 15.5 491.792 14.8646 492.062 14.2812C492.354 13.6771 492.76 13.1562 493.281 12.7188C493.802 12.2812 494.427 11.9375 495.156 11.6875C495.906 11.4167 496.74 11.2812 497.656 11.2812C498.594 11.2812 499.427 11.4167 500.156 11.6875C500.906 11.9375 501.542 12.2812 502.062 12.7188C502.583 13.1562 502.979 13.6771 503.25 14.2812C503.542 14.8646 503.688 15.5 503.688 16.1875C503.688 16.8542 503.542 17.4896 503.25 18.0938C502.979 18.6771 502.583 19.1979 502.062 19.6562C501.542 20.0938 500.906 20.4479 500.156 20.7188C499.427 20.9688 498.594 21.0938 497.656 21.0938ZM493.031 26.125H502.281V63H493.031V26.125ZM514.156 26.125H523.406V29.25C525.865 27.8542 528.208 26.875 530.438 26.3125C532.688 25.75 534.885 25.4688 537.031 25.4688C539.844 25.4688 542.448 25.8854 544.844 26.7188C547.24 27.5312 549.312 28.75 551.062 30.375C552.812 32 554.177 34.0312 555.156 36.4688C556.156 38.8854 556.656 41.6875 556.656 44.875V63H547.438V46.375C547.438 44.3542 547.146 42.5521 546.562 40.9688C546 39.3646 545.177 38.0208 544.094 36.9375C543.031 35.8333 541.729 35 540.188 34.4375C538.667 33.8542 536.958 33.5625 535.062 33.5625C534.062 33.5625 533.031 33.6667 531.969 33.875C530.927 34.0833 529.896 34.3854 528.875 34.7812C527.875 35.1562 526.906 35.6354 525.969 36.2188C525.031 36.7812 524.177 37.4271 523.406 38.1562V63H514.156V26.125ZM565.812 44.6562C565.812 41.9479 566.302 39.4271 567.281 37.0938C568.281 34.7396 569.729 32.7083 571.625 31C573.542 29.2708 575.875 27.9167 578.625 26.9375C581.396 25.9583 584.552 25.4688 588.094 25.4688C589.635 25.4688 591.188 25.5625 592.75 25.75C594.312 25.9375 595.812 26.2083 597.25 26.5625C598.708 26.8958 600.073 27.3021 601.344 27.7812C602.615 28.2396 603.719 28.75 604.656 29.3125L600.375 36.2812C598.354 35.3438 596.438 34.6562 594.625 34.2188C592.833 33.7812 591.01 33.5625 589.156 33.5625C587.031 33.5625 585.125 33.8438 583.438 34.4062C581.75 34.9479 580.312 35.7188 579.125 36.7188C577.958 37.6979 577.062 38.8646 576.438 40.2188C575.833 41.5521 575.531 43.0104 575.531 44.5938C575.531 46.1771 575.854 47.6458 576.5 49C577.167 50.3333 578.094 51.4896 579.281 52.4688C580.49 53.4271 581.938 54.1875 583.625 54.75C585.333 55.2917 587.229 55.5625 589.312 55.5625C591.604 55.5625 593.76 55.2396 595.781 54.5938C597.823 53.9479 599.719 53.0833 601.469 52L605.75 58.9688C604.646 59.6354 603.448 60.2604 602.156 60.8438C600.865 61.4062 599.479 61.8958 598 62.3125C596.542 62.7292 595 63.0521 593.375 63.2812C591.771 63.5312 590.104 63.6562 588.375 63.6562C584.854 63.6562 581.698 63.1771 578.906 62.2188C576.115 61.2604 573.75 59.9375 571.812 58.25C569.875 56.5417 568.385 54.5312 567.344 52.2188C566.323 49.9062 565.812 47.3854 565.812 44.6562ZM615.906 57.5938C615.906 56.7604 616.073 55.9792 616.406 55.25C616.76 54.5 617.26 53.8542 617.906 53.3125C618.552 52.75 619.333 52.3125 620.25 52C621.167 51.6875 622.198 51.5312 623.344 51.5312C624.49 51.5312 625.521 51.6875 626.438 52C627.354 52.3125 628.125 52.75 628.75 53.3125C629.396 53.8542 629.885 54.5 630.219 55.25C630.573 55.9792 630.75 56.7604 630.75 57.5938C630.75 58.4271 630.573 59.2188 630.219 59.9688C629.885 60.6979 629.396 61.3333 628.75 61.875C628.125 62.4167 627.354 62.8438 626.438 63.1562C625.521 63.4896 624.49 63.6562 623.344 63.6562C622.198 63.6562 621.167 63.4896 620.25 63.1562C619.333 62.8438 618.552 62.4167 617.906 61.875C617.26 61.3333 616.76 60.6979 616.406 59.9688C616.073 59.2188 615.906 58.4271 615.906 57.5938Z" fill="#FF3347"/>
<path d="M495.156 20.7188L494.808 21.6562L494.824 21.6621L494.84 21.6674L495.156 20.7188ZM493.281 19.6562L492.621 20.407L492.629 20.4146L492.638 20.422L493.281 19.6562ZM492.062 18.0938L491.15 18.5028L491.159 18.5221L491.168 18.541L492.062 18.0938ZM492.062 14.2812L491.162 13.8465L491.159 13.8533L491.155 13.8601L492.062 14.2812ZM495.156 11.6875L495.481 12.6334L495.488 12.6308L495.496 12.6281L495.156 11.6875ZM500.156 11.6875L499.808 12.6249L499.824 12.6308L499.84 12.6362L500.156 11.6875ZM503.25 14.2812L502.337 14.6903L502.346 14.7096L502.356 14.7285L503.25 14.2812ZM503.25 18.0938L502.349 17.659L502.346 17.6658L502.343 17.6726L503.25 18.0938ZM502.062 19.6562L502.706 20.422L502.714 20.4146L502.723 20.407L502.062 19.6562ZM500.156 20.7188L500.481 21.6647L500.488 21.6621L500.496 21.6593L500.156 20.7188ZM493.031 26.125V25.125H492.031V26.125H493.031ZM502.281 26.125H503.281V25.125H502.281V26.125ZM502.281 63V64H503.281V63H502.281ZM493.031 63H492.031V64H493.031V63ZM497.656 20.0938C496.83 20.0938 496.106 19.9811 495.472 19.7701L494.84 21.6674C495.707 21.9564 496.649 22.0938 497.656 22.0938V20.0938ZM495.504 19.7813C494.868 19.5448 494.346 19.2446 493.924 18.8905L492.638 20.422C493.258 20.9429 493.987 21.3511 494.808 21.6562L495.504 19.7813ZM493.942 18.9055C493.512 18.5269 493.187 18.1074 492.957 17.6465L491.168 18.541C491.521 19.2468 492.009 19.869 492.621 20.407L493.942 18.9055ZM492.975 17.6847C492.762 17.2101 492.656 16.7142 492.656 16.1875H490.656C490.656 16.9942 490.821 17.7691 491.15 18.5028L492.975 17.6847ZM492.656 16.1875C492.656 15.6352 492.764 15.1448 492.97 14.7024L491.155 13.8601C490.819 14.5844 490.656 15.3648 490.656 16.1875H492.656ZM492.963 14.716C493.192 14.2409 493.51 13.8324 493.924 13.4845L492.638 11.953C492.011 12.4801 491.516 13.1133 491.162 13.8465L492.963 14.716ZM493.924 13.4845C494.339 13.136 494.852 12.8488 495.481 12.6334L494.832 10.7416C494.002 11.0262 493.265 11.4265 492.638 11.953L493.924 13.4845ZM495.496 12.6281C496.122 12.402 496.838 12.2812 497.656 12.2812V10.2812C496.641 10.2812 495.69 10.4314 494.817 10.7469L495.496 12.6281ZM497.656 12.2812C498.499 12.2812 499.211 12.403 499.808 12.6249L500.504 10.7501C499.644 10.4303 498.689 10.2812 497.656 10.2812V12.2812ZM499.84 12.6362C500.49 12.8527 501.009 13.14 501.419 13.4845L502.706 11.953C502.074 11.4225 501.323 11.0223 500.472 10.7388L499.84 12.6362ZM501.419 13.4845C501.828 13.8277 502.13 14.2277 502.337 14.6903L504.163 13.8722C503.828 13.1265 503.339 12.4848 502.706 11.953L501.419 13.4845ZM502.356 14.7285C502.574 15.1654 502.688 15.6466 502.688 16.1875H504.688C504.688 15.3534 504.509 14.5637 504.144 13.834L502.356 14.7285ZM502.688 16.1875C502.688 16.7026 502.576 17.1895 502.349 17.659L504.151 18.5285C504.507 17.7896 504.688 17.0057 504.688 16.1875H502.688ZM502.343 17.6726C502.135 18.1206 501.827 18.5315 501.402 18.9055L502.723 20.407C503.34 19.8643 503.823 19.2336 504.157 18.5149L502.343 17.6726ZM501.419 18.8905C501.003 19.2406 500.475 19.5406 499.817 19.7782L500.496 21.6593C501.338 21.3552 502.081 20.9469 502.706 20.422L501.419 18.8905ZM499.832 19.7728C499.227 19.9802 498.506 20.0938 497.656 20.0938V22.0938C498.681 22.0938 499.627 21.9573 500.481 21.6647L499.832 19.7728ZM493.031 27.125H502.281V25.125H493.031V27.125ZM501.281 26.125V63H503.281V26.125H501.281ZM502.281 62H493.031V64H502.281V62ZM494.031 63V26.125H492.031V63H494.031ZM514.156 26.125V25.125H513.156V26.125H514.156ZM523.406 26.125H524.406V25.125H523.406V26.125ZM523.406 29.25H522.406V30.9678L523.9 30.1196L523.406 29.25ZM530.438 26.3125L530.195 25.3424L530.193 25.3429L530.438 26.3125ZM544.844 26.7188L544.515 27.6633L544.523 27.6658L544.844 26.7188ZM555.156 36.4688L554.228 36.8415L554.232 36.8511L555.156 36.4688ZM556.656 63V64H557.656V63H556.656ZM547.438 63H546.438V64H547.438V63ZM546.562 40.9688L545.619 41.2996L545.621 41.3071L545.624 41.3145L546.562 40.9688ZM544.094 36.9375L543.373 37.6309L543.38 37.6378L543.387 37.6446L544.094 36.9375ZM540.188 34.4375L539.829 35.3712L539.837 35.3741L539.845 35.3769L540.188 34.4375ZM531.969 33.875L531.776 32.8937L531.773 32.8944L531.969 33.875ZM528.875 34.7812L529.226 35.7176L529.237 35.7136L528.875 34.7812ZM525.969 36.2188L526.483 37.0762L526.49 37.0721L526.497 37.0678L525.969 36.2188ZM523.406 38.1562L522.719 37.4298L522.406 37.7257V38.1562H523.406ZM523.406 63V64H524.406V63H523.406ZM514.156 63H513.156V64H514.156V63ZM514.156 27.125H523.406V25.125H514.156V27.125ZM522.406 26.125V29.25H524.406V26.125H522.406ZM523.9 30.1196C526.297 28.7584 528.557 27.8183 530.682 27.2821L530.193 25.3429C527.859 25.9317 525.432 26.9499 522.912 28.3804L523.9 30.1196ZM530.68 27.2826C532.857 26.7384 534.973 26.4688 537.031 26.4688V24.4688C534.797 24.4688 532.518 24.7616 530.195 25.3424L530.68 27.2826ZM537.031 26.4688C539.744 26.4688 542.236 26.8704 544.515 27.6632L545.172 25.7743C542.66 24.9004 539.944 24.4688 537.031 24.4688V26.4688ZM544.523 27.6658C546.793 28.4357 548.741 29.5844 550.382 31.1078L551.743 29.6422C549.884 27.9156 547.686 26.6268 545.165 25.7717L544.523 27.6658ZM550.382 31.1078C552.014 32.6228 553.299 34.527 554.228 36.8415L556.084 36.096C555.056 33.5355 553.611 31.3772 551.743 29.6422L550.382 31.1078ZM554.232 36.8511C555.172 39.1231 555.656 41.7908 555.656 44.875H557.656C557.656 41.5842 557.14 38.6477 556.08 36.0864L554.232 36.8511ZM555.656 44.875V63H557.656V44.875H555.656ZM556.656 62H547.438V64H556.656V62ZM548.438 63V46.375H546.438V63H548.438ZM548.438 46.375C548.438 44.2589 548.132 42.3365 547.501 40.623L545.624 41.3145C546.16 42.7676 546.438 44.4494 546.438 46.375H548.438ZM547.506 40.6379C546.9 38.9078 546.001 37.4309 544.801 36.2304L543.387 37.6446C544.353 38.6107 545.1 39.8214 545.619 41.2996L547.506 40.6379ZM544.814 36.2441C543.639 35.0226 542.205 34.109 540.53 33.4981L539.845 35.3769C541.254 35.891 542.424 36.6441 543.373 37.6309L544.814 36.2441ZM540.546 33.5038C538.893 32.8701 537.061 32.5625 535.062 32.5625V34.5625C536.856 34.5625 538.44 34.8382 539.829 35.3712L540.546 33.5038ZM535.062 32.5625C533.993 32.5625 532.897 32.6739 531.776 32.8937L532.161 34.8563C533.165 34.6594 534.132 34.5625 535.062 34.5625V32.5625ZM531.773 32.8944C530.673 33.1144 529.586 33.4329 528.513 33.8489L529.237 35.7136C530.205 35.3379 531.181 35.0523 532.165 34.8556L531.773 32.8944ZM528.524 33.8449C527.46 34.2439 526.432 34.7527 525.44 35.3697L526.497 37.0678C527.38 36.5182 528.29 36.0686 529.226 35.7176L528.524 33.8449ZM525.454 35.3613C524.456 35.9599 523.544 36.6493 522.719 37.4298L524.093 38.8827C524.81 38.2048 525.606 37.6026 526.483 37.0762L525.454 35.3613ZM522.406 38.1562V63H524.406V38.1562H522.406ZM523.406 62H514.156V64H523.406V62ZM515.156 63V26.125H513.156V63H515.156ZM567.281 37.0938L566.361 36.7028L566.359 36.7068L567.281 37.0938ZM571.625 31L572.294 31.7429L572.295 31.7425L571.625 31ZM578.625 26.9375L578.292 25.9946L578.29 25.9954L578.625 26.9375ZM597.25 26.5625L597.011 27.5335L597.019 27.5355L597.027 27.5374L597.25 26.5625ZM601.344 27.7812L600.991 28.7169L600.998 28.7195L601.004 28.7219L601.344 27.7812ZM604.656 29.3125L605.508 29.836L606.037 28.9749L605.171 28.455L604.656 29.3125ZM600.375 36.2812L599.954 37.1884L600.761 37.5628L601.227 36.8047L600.375 36.2812ZM594.625 34.2188L594.388 35.1902L594.39 35.1908L594.625 34.2188ZM583.438 34.4062L583.743 35.3585L583.754 35.3549L583.438 34.4062ZM579.125 36.7188L579.768 37.4847L579.769 37.4837L579.125 36.7188ZM576.438 40.2188L575.53 39.7997L575.527 39.806L576.438 40.2188ZM576.5 49L575.597 49.4305L575.601 49.4389L575.606 49.4472L576.5 49ZM579.281 52.4688L578.645 53.2403L578.652 53.2463L578.66 53.2522L579.281 52.4688ZM583.625 54.75L583.309 55.6987L583.316 55.701L583.323 55.7032L583.625 54.75ZM595.781 54.5938L595.48 53.6403L595.477 53.6412L595.781 54.5938ZM601.469 52L602.321 51.4765L601.796 50.6216L600.942 51.1497L601.469 52ZM605.75 58.9688L606.267 59.8248L607.13 59.3039L606.602 58.4453L605.75 58.9688ZM602.156 60.8438L602.556 61.7607L602.568 61.7551L602.156 60.8438ZM598 62.3125L597.729 61.35L597.725 61.351L598 62.3125ZM593.375 63.2812L593.235 62.291L593.228 62.2921L593.221 62.2932L593.375 63.2812ZM571.812 58.25L571.151 59.0001L571.156 59.0041L571.812 58.25ZM567.344 52.2188L566.429 52.6226L566.432 52.6295L567.344 52.2188ZM566.812 44.6562C566.812 42.0713 567.279 39.6831 568.203 37.4807L566.359 36.7068C565.325 39.1711 564.812 41.8245 564.812 44.6562H566.812ZM568.202 37.4847C569.145 35.2644 570.507 33.3534 572.294 31.7429L570.956 30.2571C568.951 32.0633 567.418 34.2147 566.361 36.7028L568.202 37.4847ZM572.295 31.7425C574.102 30.1119 576.318 28.8205 578.96 27.8796L578.29 25.9954C575.432 27.0128 572.981 28.4298 570.955 30.2575L572.295 31.7425ZM578.958 27.8804C581.603 26.9459 584.643 26.4688 588.094 26.4688V24.4688C584.461 24.4688 581.189 24.9708 578.292 25.9946L578.958 27.8804ZM588.094 26.4688C589.595 26.4688 591.107 26.56 592.631 26.7429L592.869 24.7571C591.268 24.565 589.676 24.4688 588.094 24.4688V26.4688ZM592.631 26.7429C594.155 26.9258 595.615 27.1896 597.011 27.5335L597.489 25.5915C596.01 25.227 594.47 24.9492 592.869 24.7571L592.631 26.7429ZM597.027 27.5374C598.446 27.8616 599.767 28.2553 600.991 28.7169L601.697 26.8456C600.379 26.3489 598.971 25.9301 597.473 25.5876L597.027 27.5374ZM601.004 28.7219C602.228 29.1632 603.271 29.6475 604.142 30.17L605.171 28.455C604.166 27.8525 603.001 27.316 601.683 26.8406L601.004 28.7219ZM603.804 28.789L599.523 35.7578L601.227 36.8047L605.508 29.836L603.804 28.789ZM600.796 35.3741C598.726 34.4141 596.747 33.7023 594.86 33.2467L594.39 35.1908C596.128 35.6102 597.982 36.2734 599.954 37.1884L600.796 35.3741ZM594.862 33.2473C592.992 32.7907 591.09 32.5625 589.156 32.5625V34.5625C590.931 34.5625 592.674 34.7718 594.388 35.1902L594.862 33.2473ZM589.156 32.5625C586.944 32.5625 584.928 32.8552 583.121 33.4576L583.754 35.3549C585.322 34.8323 587.118 34.5625 589.156 34.5625V32.5625ZM583.132 33.4541C581.338 34.03 579.781 34.859 578.481 35.9538L579.769 37.4837C580.844 36.5785 582.162 35.8659 583.743 35.3584L583.132 33.4541ZM578.482 35.9528C577.205 37.0246 576.218 38.3089 575.53 39.7997L577.345 40.6378C577.907 39.4203 578.712 38.3713 579.768 37.4847L578.482 35.9528ZM575.527 39.806C574.859 41.2793 574.531 42.8798 574.531 44.5938H576.531C576.531 43.141 576.808 41.8248 577.348 40.6315L575.527 39.806ZM574.531 44.5938C574.531 46.3176 574.884 47.9344 575.597 49.4305L577.403 48.5695C576.824 47.3572 576.531 46.0366 576.531 44.5938H574.531ZM575.606 49.4472C576.337 50.9096 577.353 52.1752 578.645 53.2403L579.917 51.6972C578.834 50.804 577.997 49.7571 577.394 48.5528L575.606 49.4472ZM578.66 53.2522C579.972 54.2932 581.527 55.1049 583.309 55.6987L583.941 53.8013C582.348 53.2701 581.007 52.561 579.903 51.6853L578.66 53.2522ZM583.323 55.7032C585.143 56.2805 587.143 56.5625 589.312 56.5625V54.5625C587.315 54.5625 585.523 54.3029 583.927 53.7968L583.323 55.7032ZM589.312 56.5625C591.699 56.5625 593.959 56.226 596.086 55.5463L595.477 53.6412C593.562 54.2532 591.509 54.5625 589.312 54.5625V56.5625ZM596.083 55.5472C598.2 54.8774 600.172 53.9789 601.995 52.8503L600.942 51.1497C599.266 52.1878 597.446 53.0184 595.48 53.6403L596.083 55.5472ZM600.617 52.5235L604.898 59.4922L606.602 58.4453L602.321 51.4765L600.617 52.5235ZM605.233 58.1127C604.166 58.757 603.004 59.3638 601.745 59.9324L602.568 61.7551C603.892 61.157 605.126 60.5139 606.267 59.8248L605.233 58.1127ZM601.757 59.9269C600.51 60.4697 599.168 60.9445 597.729 61.35L598.271 63.275C599.79 62.8472 601.219 62.3428 602.556 61.7606L601.757 59.9269ZM597.725 61.351C596.315 61.754 594.818 62.0678 593.235 62.291L593.515 64.2715C595.182 64.0364 596.769 63.7043 598.275 63.274L597.725 61.351ZM593.221 62.2932C591.671 62.5347 590.056 62.6562 588.375 62.6562V64.6562C590.152 64.6562 591.871 64.5278 593.529 64.2693L593.221 62.2932ZM588.375 62.6562C584.944 62.6562 581.9 62.1892 579.231 61.2729L578.582 63.1646C581.496 64.1649 584.764 64.6562 588.375 64.6562V62.6562ZM579.231 61.2729C576.543 60.3503 574.296 59.087 572.469 57.4959L571.156 59.0041C573.204 60.788 575.686 62.1705 578.582 63.1646L579.231 61.2729ZM572.474 57.4999C570.641 55.8838 569.238 53.9885 568.256 51.808L566.432 52.6295C567.533 55.074 569.109 57.1995 571.151 59.0001L572.474 57.4999ZM568.259 51.8149C567.298 49.6395 566.812 47.2576 566.812 44.6562H564.812C564.812 47.5133 565.348 50.173 566.429 52.6226L568.259 51.8149ZM616.406 55.25L615.502 54.823L615.497 54.8342L616.406 55.25ZM617.906 53.3125L618.549 54.0787L618.556 54.0727L618.563 54.0666L617.906 53.3125ZM626.438 52L626.115 52.9465L626.438 52ZM628.75 53.3125L628.081 54.0558L628.094 54.0675L628.107 54.0787L628.75 53.3125ZM630.219 55.25L629.305 55.6561L629.312 55.6716L629.319 55.6869L630.219 55.25ZM630.219 59.9688L629.314 59.5417L629.309 59.553L630.219 59.9688ZM628.75 61.875L628.107 61.1088L628.101 61.114L628.095 61.1193L628.75 61.875ZM626.438 63.1562L626.115 62.2097L626.105 62.213L626.096 62.2165L626.438 63.1562ZM620.25 63.1562L620.592 62.2165L620.582 62.213L620.573 62.2097L620.25 63.1562ZM617.906 61.875L617.264 62.6412L617.906 61.875ZM616.406 59.9688L615.492 60.3749L615.499 60.3904L615.507 60.4057L616.406 59.9688ZM616.906 57.5938C616.906 56.8981 617.044 56.2593 617.316 55.6658L615.497 54.8342C615.101 55.6991 614.906 56.6227 614.906 57.5938H616.906ZM617.31 55.677C617.602 55.0598 618.012 54.5291 618.549 54.0787L617.264 52.5463C616.509 53.1793 615.919 53.9402 615.502 54.823L617.31 55.677ZM618.563 54.0666C619.099 53.5997 619.763 53.2226 620.573 52.9465L619.927 51.0535C618.904 51.4024 618.005 51.9003 617.249 52.5584L618.563 54.0666ZM620.573 52.9465C621.368 52.6752 622.288 52.5312 623.344 52.5312V50.5312C622.108 50.5312 620.965 50.6998 619.927 51.0535L620.573 52.9465ZM623.344 52.5312C624.399 52.5312 625.319 52.6752 626.115 52.9465L626.76 51.0535C625.723 50.6998 624.58 50.5312 623.344 50.5312V52.5312ZM626.115 52.9465C626.923 53.222 627.571 53.5964 628.081 54.0558L629.419 52.5692C628.679 51.9036 627.786 51.403 626.76 51.0535L626.115 52.9465ZM628.107 54.0787C628.64 54.5253 629.035 55.0491 629.305 55.6561L631.133 54.8439C630.736 53.9509 630.152 53.1831 629.393 52.5463L628.107 54.0787ZM629.319 55.6869C629.605 56.276 629.75 56.9074 629.75 57.5938H631.75C631.75 56.6134 631.54 55.6823 631.118 54.8131L629.319 55.6869ZM629.75 57.5938C629.75 58.2801 629.605 58.9259 629.315 59.5417L631.123 60.3958C631.541 59.5116 631.75 58.574 631.75 57.5938H629.75ZM629.309 59.553C629.041 60.14 628.645 60.6576 628.107 61.1088L629.393 62.6412C630.146 62.009 630.73 61.2558 631.128 60.3845L629.309 59.553ZM628.095 61.1193C627.583 61.5634 626.93 61.9318 626.115 62.2097L626.76 64.1028C627.778 63.7557 628.667 63.2699 629.405 62.6307L628.095 61.1193ZM626.096 62.2165C625.306 62.5037 624.393 62.6562 623.344 62.6562V64.6562C624.586 64.6562 625.736 64.4755 626.779 64.096L626.096 62.2165ZM623.344 62.6562C622.295 62.6562 621.382 62.5037 620.592 62.2165L619.908 64.096C620.952 64.4755 622.101 64.6562 623.344 64.6562V62.6562ZM620.573 62.2097C619.756 61.9312 619.087 61.5602 618.549 61.1088L617.264 62.6412C618.017 63.2731 618.911 63.7563 619.927 64.1028L620.573 62.2097ZM618.549 61.1088C618.006 60.6539 617.596 60.1293 617.306 59.5318L615.507 60.4057C615.925 61.2665 616.514 62.0128 617.264 62.6412L618.549 61.1088ZM617.32 59.5626C617.044 58.9425 616.906 58.2894 616.906 57.5938H614.906C614.906 58.5648 615.101 59.495 615.492 60.3749L617.32 59.5626Z" fill="#FF3347" mask="url(#path-2-outside-1_149_5)"/>
</svg>
